<svg id="Capa_1" data-name="Capa 1" xmlns="http://www.w3.org/2000/svg" viewBox="0 0 120 32"><defs><style>.cls-1{fill:none;}.cls-2{fill:#2b7d7d;}</style></defs><title>fundar_logo_v2</title><rect class="cls-1" width="120" height="32"/><path class="cls-2" d="M104.33,10.48c-0.27,1.74-.51,3.34-0.88,5.06l-3,14.16h6.64L109,20.84c0.48-2.85,2.08-5.3,4.92-5.3a4.39,4.39,0,0,1,3.09.87l1.48-5.93a8.15,8.15,0,0,0-2.83-.5c-2.73,0-4.81,2.24-5.93,4.45h0l0.73-4h-6.14v0.05Z"/><path class="cls-2" d="M92.73,10c-0.86,0-1.59.15-2.32,0.15a15.56,15.56,0,0,0-4.69,1L85,15.91a12.77,12.77,0,0,1,5.44-1.48h0.84c2.22,0,3.58,1.11,3.58,2.45a1.55,1.55,0,0,1-.13.75c-0.86,0-2.23-.13-3.57-0.13H90.41c-5.44.13-9.87,2.46-9.87,7,0,3.7,2.35,5.55,6.41,5.55a8.06,8.06,0,0,0,3.46-.61A6.84,6.84,0,0,0,93.47,27l-0.24,2.7h5.44C99.4,23.91,101,19.6,101,16.53,101,11.84,97.3,10,92.73,10ZM90.41,25.52a4.74,4.74,0,0,1-1.36.12,2.07,2.07,0,0,1-2.22-1.85c0-1.35,1.47-2.33,3.58-2.69a9.51,9.51,0,0,1,1.95,0,9.7,9.7,0,0,1,1.73.12A5.06,5.06,0,0,1,90.41,25.52Z"/><path class="cls-2" d="M77.24,5l-1.88,8.6H75.25a6.33,6.33,0,0,0-5.42-3.44A3.6,3.6,0,0,0,68.6,10c-6.53,0-9.75,5.93-9.75,12.21,0,4.32,3,7.88,7.13,7.88a8.65,8.65,0,0,0,3.84-.74,8.08,8.08,0,0,0,3.07-2.71H73l-0.5,3.08h6.05a26.71,26.71,0,0,1,.36-3L83.76,5H77.24ZM69.83,24.88a2.63,2.63,0,0,1-1,.13c-2.09,0-3.07-1.6-3.07-3.92,0-2.72,1.47-5.43,4.06-5.93h0.85c2.22,0,3.2,2,3.2,3.83C73.88,21.32,72.41,24.28,69.83,24.88Z"/><path class="cls-2" d="M35.4,29.75h6.67l1.83-8.87c0.5-2.82,2.23-5.3,4.93-5.3,1.85,0,2.6,1.1,2.6,2.23a26.27,26.27,0,0,1-.36,2.94l-1.87,9H56l1.84-9a18.71,18.71,0,0,0,.49-4.07c0-3.7-2.08-6.64-6-6.64-3.46,0-5.42,1.46-7.39,3.58h0l0.49-3.08h-6.2c-0.25,1.72-.5,3.33-0.86,5Z"/><path class="cls-2" d="M37.39,10.53H30.75L28.9,19.4c-0.5,2.84-2.09,5.17-4.93,5.17a2.13,2.13,0,0,1-2.59-2.21,11.34,11.34,0,0,1,.49-2.84l1.85-9h-6.9L15.1,19.4a19.79,19.79,0,0,0-.5,4.06c0,3.83,2.11,6.65,5.92,6.65a8.91,8.91,0,0,0,7.38-3.57H28l-0.5,3.2h5.93a50.81,50.81,0,0,1,1-5Z"/><path class="cls-2" d="M3,29.75H9.68l2.95-14.53h4.94l1-4.68H13.63l0.24-1.12c0.5-2.21,1.48-3.19,3.07-3.19A7,7,0,0,1,19,6.7l1.23-4.43a16,16,0,0,0-4.93-.62c-4.31,0-7,2.48-7.9,6.41L7,10.53H3L1.9,15.21H6.11Z"/></svg>