<?xml version="1.0" encoding="utf-8"?>
<!-- Generator: Adobe Illustrator 22.0.0, SVG Export Plug-In . SVG Version: 6.00 Build 0)  -->
<svg version="1.1" id="Layer_1" xmlns="http://www.w3.org/2000/svg" xmlns:xlink="http://www.w3.org/1999/xlink" x="0px" y="0px"
	 viewBox="0 0 123.6 49.2" style="enable-background:new 0 0 123.6 49.2;" xml:space="preserve">
<style type="text/css">
	.st0{fill:#5F604B;}
	.st1{clip-path:url(#SVGID_2_);fill:#5F604B;}
	.st2{clip-path:url(#SVGID_4_);fill:#5F604B;}
	.st3{clip-path:url(#SVGID_6_);fill:#5F604B;}
	.st4{clip-path:url(#SVGID_8_);fill:#5F604B;}
	.st5{clip-path:url(#SVGID_10_);fill:#5F604B;}
</style>
<polygon class="st0" points="11.7,31.6 9,37 6.2,31.6 2.3,31.6 7.1,40.5 7.1,48.2 10.9,48.2 10.9,40.5 15.7,31.6 "/>
<g>
	<defs>
		<rect id="SVGID_1_" x="1.7" y="0.7" width="120.2" height="47.9"/>
	</defs>
	<clipPath id="SVGID_2_">
		<use xlink:href="#SVGID_1_"  style="overflow:visible;"/>
	</clipPath>
	<path class="st1" d="M21.4,15.5c-1.6,3.7-5.4,6-9.3,6C6.3,21.5,1.7,16.7,1.7,11c0-5.5,4.6-10.3,10.4-10.3c3.4,0,7.6,1.7,9.5,6.1
		h-4.2c-1.4-1.7-3.1-2.7-5.4-2.7c-3.2,0-6.5,2.9-6.5,6.9c0,3.7,3.1,7,6.7,7c2.7,0,4.1-1.6,5.1-2.5H21.4z"/>
</g>
<path class="st0" d="M29.7,6.3L29.7,6.3l2.3,6.1h-4.6L29.7,6.3z M28.3,1.1l-8.3,20H24l2.2-5.2h7.2l2.2,5.2h4.1l-8.4-20H28.3z"/>
<g>
	<defs>
		<rect id="SVGID_3_" x="1.7" y="0.7" width="120.2" height="47.9"/>
	</defs>
	<clipPath id="SVGID_4_">
		<use xlink:href="#SVGID_3_"  style="overflow:visible;"/>
	</clipPath>
	<path class="st2" d="M57.3,15.5c-1.6,3.7-5.4,6-9.3,6c-5.8,0-10.5-4.8-10.5-10.5c0-5.5,4.6-10.3,10.4-10.3c3.3,0,7.6,1.7,9.5,6.1
		h-4.2c-1.5-1.7-3.1-2.7-5.4-2.7c-3.3,0-6.5,2.9-6.5,6.9c0,3.7,3.1,7,6.7,7c2.7,0,4.2-1.6,5.1-2.5H57.3z"/>
</g>
<polygon class="st0" points="69.2,1.1 69.2,9.2 62,9.2 62,1.1 58.3,1.1 58.3,21.1 62,21.1 62,12.7 69.2,12.7 69.2,21.1 73,21.1 
	73,1.1 "/>
<polygon class="st0" points="74.3,1.1 74.3,21.1 85.1,21.1 85.1,17.6 78.1,17.6 78.1,12.9 84.8,12.9 84.8,9.4 78.1,9.4 78.1,4.5 
	85.1,4.5 85.1,1.1 "/>
<g>
	<defs>
		<rect id="SVGID_5_" x="1.7" y="0.7" width="120.2" height="47.9"/>
	</defs>
	<clipPath id="SVGID_6_">
		<use xlink:href="#SVGID_5_"  style="overflow:visible;"/>
	</clipPath>
	<path class="st3" d="M90.6,10.7H93c3.1,0,3.6-2,3.6-3.1c0-1.1-0.7-3-3.6-3h-2.4V10.7z M86.9,1.1h6.2c2.3,0,3.8,0.4,4.9,1.4
		c1.1,0.9,2.4,2.6,2.4,4.8c0,1.3-0.5,3.4-1.9,4.8c-1.2,1.1-2.3,1.4-3.3,1.6l5.5,7.4H96l-5.3-7.7h-0.1v7.7h-3.7V1.1z"/>
	<path class="st3" d="M111.4,18c3.8,0,6.8-3.2,6.8-6.9c0-3.8-3-7-6.8-7c-3.8,0-6.8,3.1-6.8,7C104.6,14.8,107.5,18,111.4,18
		 M111.4,0.7c5.7,0,10.5,4.6,10.5,10.5c0,5.7-4.7,10.4-10.5,10.4c-5.8,0-10.5-4.6-10.5-10.4C100.9,5.2,105.7,0.7,111.4,0.7"/>
</g>
<polygon class="st0" points="34,28.1 27.7,36.8 27.6,36.8 27.6,28.1 23.9,28.1 23.9,48.2 27.6,48.2 27.6,39.4 27.7,39.4 34,48.2 
	38.3,48.2 30.8,38 38.3,28.1 "/>
<g>
	<defs>
		<rect id="SVGID_7_" x="1.7" y="0.7" width="120.2" height="47.9"/>
	</defs>
	<clipPath id="SVGID_8_">
		<use xlink:href="#SVGID_7_"  style="overflow:visible;"/>
	</clipPath>
	<path class="st4" d="M46.6,45.1c3.8,0,6.8-3.2,6.8-6.9c0-3.9-3-7-6.8-7c-3.8,0-6.8,3.1-6.8,7C39.8,41.9,42.8,45.1,46.6,45.1
		 M46.6,27.7c5.7,0,10.5,4.5,10.5,10.5c0,5.7-4.7,10.3-10.5,10.3c-5.8,0-10.5-4.6-10.5-10.3C36.1,32.3,40.9,27.7,46.6,27.7"/>
</g>
<polygon class="st0" points="57,28.1 57,31.6 64.2,31.6 56.5,45.1 56.5,48.2 69.1,48.2 69.1,44.7 60.9,44.7 68.6,31.3 68.6,28.1 "/>
<g>
	<defs>
		<rect id="SVGID_9_" x="1.7" y="0.7" width="120.2" height="47.9"/>
	</defs>
	<clipPath id="SVGID_10_">
		<use xlink:href="#SVGID_9_"  style="overflow:visible;"/>
	</clipPath>
	<path class="st5" d="M73.6,28.1l0,12.7c0,1,0,4.3,3.5,4.3c3.5,0,3.5-3.3,3.5-4.3V28.1h3.7v12.7c0,1.6-0.2,3.4-1.2,4.7
		c-1.2,1.6-3.3,3-6,3c-3.1,0-5.1-1.7-6-2.8c-0.7-0.9-1.3-2.4-1.3-4.9V28.1H73.6z"/>
	<path class="st5" d="M105.2,42.6c-1.6,3.7-5.4,6-9.3,6c-5.8,0-10.5-4.8-10.5-10.5c0-5.5,4.6-10.3,10.4-10.3c3.3,0,7.5,1.7,9.5,6.1
		h-4.2c-1.4-1.7-3.1-2.7-5.4-2.7c-3.2,0-6.5,2.9-6.5,6.9c0,3.8,3.1,7,6.7,7c2.7,0,4.2-1.6,5.1-2.5H105.2z"/>
</g>
<polygon class="st0" points="117.6,28.1 117.6,36.3 110.4,36.3 110.4,28.1 106.7,28.1 106.7,48.2 110.4,48.2 110.4,39.7 117.6,39.7 
	117.6,48.2 121.4,48.2 121.4,28.1 "/>
</svg>
