<?xml version="1.0" encoding="utf-8"?>
<!-- Generator: Adobe Illustrator 16.0.0, SVG Export Plug-In . SVG Version: 6.00 Build 0)  -->
<!DOCTYPE svg PUBLIC "-//W3C//DTD SVG 1.1//EN" "http://www.w3.org/Graphics/SVG/1.1/DTD/svg11.dtd">
<svg version="1.1" xmlns="http://www.w3.org/2000/svg" xmlns:xlink="http://www.w3.org/1999/xlink" x="0px" y="0px" width="300px"
	 height="300px" viewBox="0 0 300 300" enable-background="new 0 0 300 300" xml:space="preserve">
<g id="Fondo">
</g>
<g id="Guías">
</g>
<g id="Primer_plano">
	<g>
		<g>
			<polygon fill-rule="evenodd" clip-rule="evenodd" fill="#001D3F" points="92.672,151.698 120.187,151.698 120.187,69.61 
				75.049,69.61 66.068,118.499 65.839,118.499 56.857,69.61 11.72,69.61 11.72,151.698 39.235,151.698 39.235,93.031 
				39.462,93.031 51.06,151.698 80.847,151.698 92.445,93.031 92.672,93.031 			"/>
			<path fill-rule="evenodd" clip-rule="evenodd" fill="#001D3F" d="M203.297,92.918c0-19.101-15.348-25.468-35.812-25.468
				c-23.99,0-37.747,9.663-37.747,26.719c0,10.574,4.434,18.191,17.054,21.942l23.081,6.821c3.069,0.911,5.458,2.502,5.458,5.572
				c0,3.638-3.071,6.707-7.845,6.707c-3.071,0-5.116-1.023-6.367-2.614c-1.25-1.706-1.705-3.98-1.705-6.254h-31.153
				c0,21.375,18.19,27.515,37.974,27.515c23.193,0,39.565-8.413,39.565-28.537c0-9.893-4.547-17.283-14.894-21.603
				c-8.299-3.525-19.783-5.8-26.037-7.618c-3.411-1.024-5.343-2.274-5.343-5.231c0-2.501,2.274-4.774,7.503-4.774
				c4.207,0,7.051,1.706,7.164,6.822H203.297z"/>
			<path fill-rule="evenodd" clip-rule="evenodd" fill="#001D3F" d="M213.869,151.698h31.835v-29.22h3.752
				c5.23,0,7.276,1.593,7.959,5.685c1.136,7.049,2.16,17.396,4.092,23.535h31.835c-3.752-12.392-3.525-23.989-5.343-31.038
				c-1.593-6.254-5.913-9.778-13.872-10.461v-0.227c12.279-2.956,16.259-10.118,16.259-19.556c0-15.462-10.347-20.806-27.969-20.806
				h-48.548V151.698z M245.704,103.832V88.256h2.956c6.367,0,10.574,1.251,10.574,7.276c0,6.14-4.547,8.3-10.801,8.3H245.704z"/>
		</g>
		<g>
			<g>
				<polygon fill="#37B5C6" points="11.811,257.455 82.214,257.455 82.214,266.749 11.811,266.749 11.811,257.455 				"/>
				<path fill="#37B5C6" d="M47.012,262.102"/>
			</g>
			<g>
				<polygon fill="#006F94" points="82.156,257.455 152.559,257.455 152.559,266.749 82.156,266.749 82.156,257.455 				"/>
				<path fill="#006F94" d="M117.357,262.102"/>
			</g>
			<g>
				<polygon fill="#00436D" points="152.572,257.455 222.975,257.455 222.975,266.749 152.572,266.749 152.572,257.455 				"/>
				<path fill="#00436D" d="M187.773,262.102"/>
			</g>
			<g>
				<polygon fill="#001D3F" points="222.941,257.455 293.344,257.455 293.344,266.749 222.941,266.749 222.941,257.455 				"/>
				<path fill="#001D3F" d="M258.143,262.102"/>
			</g>
		</g>
		<g>
			<g>
				<rect x="11.471" y="174.242" fill-rule="evenodd" clip-rule="evenodd" fill="#001D3F" width="2.826" height="29.677"/>
				<polygon fill-rule="evenodd" clip-rule="evenodd" fill="#001D3F" points="19.318,174.242 19.318,203.918 22.144,203.918 
					22.144,178.814 22.227,178.814 39.518,203.918 42.677,203.918 42.677,174.242 39.85,174.242 39.85,199.347 39.767,199.347 
					22.476,174.242 				"/>
				<polygon fill-rule="evenodd" clip-rule="evenodd" fill="#001D3F" points="44.249,174.242 55.221,203.918 58.505,203.918 
					69.52,174.242 66.527,174.242 56.967,200.801 56.884,200.801 47.241,174.242 				"/>
				<polygon fill-rule="evenodd" clip-rule="evenodd" fill="#001D3F" points="71.007,174.242 71.007,203.918 91.707,203.918 
					91.707,201.508 73.834,201.508 73.834,189.787 90.376,189.787 90.376,187.376 73.834,187.376 73.834,176.652 91.499,176.652 
					91.499,174.242 				"/>
				<path fill-rule="evenodd" clip-rule="evenodd" fill="#001D3F" d="M97.351,188.332v-11.679h10.557
					c2.162,0,3.769,0.526,4.822,1.579c1.053,1.053,1.579,2.494,1.579,4.323c0,0.914-0.18,1.732-0.541,2.453
					c-0.332,0.692-0.79,1.288-1.371,1.787c-0.582,0.499-1.261,0.887-2.037,1.164c-0.776,0.25-1.593,0.374-2.452,0.374H97.351z
					 M94.524,174.242v29.677h2.827v-13.175h10.724c1.33-0.056,2.369,0.166,3.117,0.665c0.775,0.499,1.358,1.164,1.746,1.995
					c0.415,0.804,0.678,1.732,0.79,2.785c0.138,1.025,0.235,2.064,0.291,3.117c0.028,0.305,0.056,0.665,0.083,1.081
					c0.027,0.416,0.055,0.846,0.083,1.289c0.055,0.415,0.125,0.831,0.208,1.247c0.111,0.388,0.25,0.721,0.416,0.997h3.117
					c-0.305-0.359-0.554-0.859-0.749-1.496c-0.166-0.665-0.291-1.358-0.374-2.079c-0.083-0.748-0.138-1.482-0.166-2.203
					c-0.027-0.72-0.055-1.33-0.083-1.829c-0.055-0.887-0.18-1.704-0.375-2.452c-0.166-0.776-0.457-1.455-0.873-2.037
					c-0.388-0.582-0.9-1.053-1.538-1.414c-0.637-0.388-1.441-0.651-2.411-0.79v-0.083c1.912-0.388,3.353-1.274,4.323-2.66
					c0.97-1.386,1.455-3.021,1.455-4.905c0-1.33-0.25-2.48-0.749-3.45c-0.471-0.998-1.122-1.801-1.953-2.411
					c-0.804-0.637-1.76-1.108-2.868-1.413c-1.081-0.305-2.23-0.457-3.45-0.457H94.524z"/>
				<path fill-rule="evenodd" clip-rule="evenodd" fill="#001D3F" d="M122.447,194.151h-2.826c-0.083,1.829,0.152,3.395,0.707,4.696
					c0.582,1.303,1.399,2.37,2.453,3.201c1.053,0.831,2.328,1.455,3.824,1.87c1.496,0.388,3.117,0.582,4.863,0.582
					c1.746,0,3.242-0.166,4.488-0.499c1.248-0.304,2.287-0.707,3.118-1.205c0.859-0.526,1.524-1.108,1.995-1.745
					c0.499-0.638,0.873-1.261,1.123-1.871c0.277-0.637,0.443-1.233,0.499-1.787c0.083-0.554,0.125-0.998,0.125-1.33
					c0-1.219-0.208-2.258-0.624-3.117c-0.388-0.859-0.942-1.579-1.663-2.162c-0.692-0.609-1.51-1.108-2.452-1.496
					c-0.915-0.416-1.898-0.762-2.951-1.04l-7.233-1.787c-0.609-0.138-1.191-0.318-1.745-0.541c-0.527-0.221-0.998-0.512-1.413-0.873
					c-0.417-0.36-0.749-0.79-0.998-1.288c-0.222-0.527-0.333-1.137-0.333-1.829c0-1.109,0.208-2.037,0.624-2.785
					c0.415-0.749,0.956-1.344,1.621-1.787c0.692-0.471,1.482-0.804,2.369-0.998c0.915-0.221,1.856-0.333,2.827-0.333
					c1.053,0,2.051,0.152,2.993,0.458c0.969,0.277,1.815,0.707,2.535,1.288c0.748,0.554,1.344,1.261,1.788,2.12
					c0.471,0.831,0.734,1.814,0.79,2.951h2.826c0-1.524-0.305-2.854-0.914-3.991c-0.582-1.164-1.372-2.133-2.37-2.909
					c-0.998-0.776-2.161-1.358-3.491-1.746c-1.33-0.387-2.729-0.582-4.198-0.582c-2.078,0-3.782,0.304-5.112,0.915
					c-1.33,0.582-2.383,1.302-3.159,2.161c-0.748,0.859-1.261,1.774-1.538,2.744c-0.276,0.97-0.416,1.815-0.416,2.535
					c0,1.164,0.181,2.148,0.541,2.952c0.388,0.804,0.887,1.482,1.496,2.037c0.61,0.554,1.317,0.998,2.121,1.33
					c0.831,0.333,1.676,0.609,2.535,0.832l6.609,1.621c0.693,0.166,1.399,0.387,2.12,0.665c0.721,0.25,1.372,0.582,1.954,0.998
					c0.609,0.416,1.095,0.929,1.455,1.538c0.388,0.609,0.581,1.33,0.581,2.162c0,1.081-0.263,2.008-0.79,2.785
					c-0.526,0.748-1.191,1.371-1.995,1.871c-0.776,0.471-1.621,0.817-2.536,1.039c-0.915,0.222-1.76,0.333-2.536,0.333
					c-1.358,0-2.632-0.125-3.824-0.374c-1.191-0.277-2.23-0.721-3.117-1.331c-0.859-0.61-1.538-1.427-2.037-2.452
					C122.655,196.95,122.42,195.675,122.447,194.151z"/>
				<rect x="146.38" y="174.242" fill-rule="evenodd" clip-rule="evenodd" fill="#001D3F" width="2.826" height="29.677"/>
				<path fill-rule="evenodd" clip-rule="evenodd" fill="#001D3F" d="M155.516,189.08c0-1.635,0.208-3.229,0.624-4.78
					c0.443-1.552,1.109-2.938,1.995-4.156c0.915-1.247,2.079-2.245,3.492-2.993c1.413-0.748,3.103-1.122,5.07-1.122
					c1.968,0,3.645,0.375,5.03,1.122c1.413,0.749,2.563,1.746,3.45,2.993c0.914,1.219,1.579,2.604,1.995,4.156
					c0.443,1.551,0.665,3.145,0.665,4.78c0,1.607-0.222,3.2-0.665,4.78c-0.416,1.551-1.081,2.951-1.995,4.198
					c-0.887,1.219-2.037,2.203-3.45,2.951c-1.385,0.749-3.062,1.122-5.03,1.122c-1.967,0-3.657-0.374-5.07-1.122
					s-2.577-1.732-3.492-2.951c-0.886-1.247-1.552-2.646-1.995-4.198C155.724,192.28,155.516,190.687,155.516,189.08z
					 M152.689,189.08c0,2.05,0.291,4.004,0.873,5.861c0.582,1.856,1.455,3.492,2.619,4.905c1.164,1.413,2.619,2.549,4.364,3.408
					c1.773,0.831,3.824,1.246,6.151,1.246c2.328,0,4.365-0.416,6.11-1.246c1.746-0.859,3.2-1.995,4.364-3.408
					c1.164-1.413,2.037-3.048,2.619-4.905c0.582-1.857,0.873-3.811,0.873-5.861s-0.291-4.004-0.873-5.86
					c-0.582-1.857-1.455-3.491-2.619-4.905c-1.164-1.441-2.618-2.577-4.364-3.409c-1.745-0.859-3.782-1.288-6.11-1.288
					c-2.327,0-4.378,0.429-6.151,1.288c-1.745,0.832-3.2,1.967-4.364,3.409c-1.164,1.414-2.038,3.048-2.619,4.905
					C152.98,185.076,152.689,187.03,152.689,189.08z"/>
				<polygon fill-rule="evenodd" clip-rule="evenodd" fill="#001D3F" points="183.896,174.242 183.896,203.918 186.723,203.918 
					186.723,178.814 186.806,178.814 204.097,203.918 207.256,203.918 207.256,174.242 204.429,174.242 204.429,199.347 
					204.346,199.347 187.055,174.242 				"/>
				<polygon fill-rule="evenodd" clip-rule="evenodd" fill="#001D3F" points="212.069,174.242 212.069,203.918 232.769,203.918 
					232.769,201.508 214.896,201.508 214.896,189.787 231.438,189.787 231.438,187.376 214.896,187.376 214.896,176.652 
					232.56,176.652 232.56,174.242 				"/>
				<path fill-rule="evenodd" clip-rule="evenodd" fill="#001D3F" d="M236.916,194.151h-2.826c-0.083,1.829,0.152,3.395,0.707,4.696
					c0.582,1.303,1.399,2.37,2.453,3.201c1.053,0.831,2.328,1.455,3.824,1.87c1.496,0.388,3.117,0.582,4.863,0.582
					c1.746,0,3.242-0.166,4.488-0.499c1.248-0.304,2.287-0.707,3.118-1.205c0.859-0.526,1.524-1.108,1.995-1.745
					c0.499-0.638,0.873-1.261,1.123-1.871c0.277-0.637,0.443-1.233,0.499-1.787c0.083-0.554,0.125-0.998,0.125-1.33
					c0-1.219-0.208-2.258-0.624-3.117c-0.388-0.859-0.942-1.579-1.663-2.162c-0.692-0.609-1.51-1.108-2.452-1.496
					c-0.915-0.416-1.898-0.762-2.951-1.04l-7.233-1.787c-0.609-0.138-1.191-0.318-1.745-0.541c-0.527-0.221-0.998-0.512-1.414-0.873
					s-0.748-0.79-0.998-1.288c-0.222-0.527-0.332-1.137-0.332-1.829c0-1.109,0.207-2.037,0.624-2.785
					c0.415-0.749,0.956-1.344,1.621-1.787c0.692-0.471,1.482-0.804,2.369-0.998c0.915-0.221,1.856-0.333,2.827-0.333
					c1.053,0,2.051,0.152,2.992,0.458c0.97,0.277,1.815,0.707,2.536,1.288c0.748,0.554,1.344,1.261,1.787,2.12
					c0.471,0.831,0.734,1.814,0.79,2.951h2.826c0-1.524-0.305-2.854-0.914-3.991c-0.582-1.164-1.372-2.133-2.37-2.909
					c-0.998-0.776-2.161-1.358-3.491-1.746c-1.33-0.387-2.729-0.582-4.198-0.582c-2.079,0-3.783,0.304-5.113,0.915
					c-1.33,0.582-2.383,1.302-3.159,2.161c-0.748,0.859-1.261,1.774-1.538,2.744c-0.276,0.97-0.415,1.815-0.415,2.535
					c0,1.164,0.18,2.148,0.54,2.952c0.388,0.804,0.887,1.482,1.496,2.037c0.61,0.554,1.317,0.998,2.12,1.33
					c0.831,0.333,1.677,0.609,2.535,0.832l6.609,1.621c0.692,0.166,1.399,0.387,2.12,0.665c0.721,0.25,1.372,0.582,1.954,0.998
					c0.609,0.416,1.095,0.929,1.455,1.538c0.388,0.609,0.582,1.33,0.582,2.162c0,1.081-0.263,2.008-0.79,2.785
					c-0.526,0.748-1.191,1.371-1.995,1.871c-0.776,0.471-1.621,0.817-2.536,1.039c-0.915,0.222-1.76,0.333-2.536,0.333
					c-1.358,0-2.632-0.125-3.824-0.374c-1.192-0.277-2.23-0.721-3.117-1.331c-0.859-0.61-1.538-1.427-2.037-2.452
					C237.124,196.95,236.889,195.675,236.916,194.151z"/>
				<polygon fill-rule="evenodd" clip-rule="evenodd" fill="#001D3F" points="278.78,191.699 278.78,203.918 281.606,203.918 
					281.606,191.699 293.328,174.242 289.961,174.242 280.235,189.288 270.468,174.242 267.143,174.242 				"/>
			</g>
			<g>
				<path fill-rule="evenodd" clip-rule="evenodd" fill="#001D3F" d="M11.592,214.738v29.677h10.266
					c4.517-0.11,7.912-1.371,10.184-3.782c2.3-2.438,3.45-6.124,3.45-11.056c0-4.933-1.15-8.604-3.45-11.015
					c-2.272-2.439-5.667-3.713-10.184-3.824H11.592z M14.418,242.004v-24.855h6.026c2.134,0,3.963,0.235,5.487,0.707
					c1.552,0.443,2.826,1.164,3.824,2.161c0.998,0.998,1.732,2.286,2.203,3.866c0.471,1.579,0.707,3.478,0.707,5.694
					c0,2.216-0.236,4.115-0.707,5.694c-0.471,1.58-1.206,2.868-2.203,3.865c-0.998,0.998-2.272,1.732-3.824,2.204
					c-1.524,0.443-3.353,0.665-5.487,0.665H14.418z"/>
				<polygon fill-rule="evenodd" clip-rule="evenodd" fill="#001D3F" points="39.294,214.738 39.294,244.415 59.994,244.415 
					59.994,242.004 42.121,242.004 42.121,230.283 58.664,230.283 58.664,227.872 42.121,227.872 42.121,217.149 59.786,217.149 
					59.786,214.738 				"/>
				<path fill-rule="evenodd" clip-rule="evenodd" fill="#001D3F" d="M64.503,234.648h-2.826c-0.083,1.828,0.152,3.394,0.707,4.696
					c0.582,1.303,1.399,2.37,2.453,3.2c1.053,0.832,2.327,1.455,3.824,1.871c1.496,0.387,3.117,0.582,4.863,0.582
					s3.242-0.167,4.489-0.499c1.248-0.305,2.286-0.707,3.118-1.205c0.859-0.526,1.524-1.108,1.995-1.746
					c0.499-0.637,0.874-1.261,1.123-1.871c0.277-0.637,0.443-1.233,0.499-1.788c0.083-0.553,0.125-0.998,0.125-1.33
					c0-1.219-0.208-2.259-0.624-3.118c-0.388-0.858-0.942-1.579-1.663-2.161c-0.693-0.609-1.51-1.109-2.452-1.496
					c-0.915-0.416-1.898-0.763-2.951-1.04l-7.232-1.788c-0.61-0.138-1.191-0.318-1.746-0.54c-0.526-0.222-0.998-0.513-1.413-0.873
					c-0.416-0.36-0.749-0.79-0.998-1.288c-0.222-0.527-0.333-1.137-0.333-1.83c0-1.108,0.208-2.036,0.624-2.785
					c0.416-0.749,0.956-1.344,1.621-1.787c0.692-0.472,1.482-0.804,2.369-0.998c0.915-0.221,1.856-0.332,2.827-0.332
					c1.053,0,2.05,0.152,2.992,0.457c0.97,0.277,1.815,0.707,2.536,1.288c0.748,0.555,1.344,1.261,1.787,2.121
					c0.471,0.831,0.734,1.814,0.79,2.951h2.826c0-1.524-0.304-2.854-0.914-3.99c-0.583-1.164-1.372-2.134-2.37-2.909
					c-0.998-0.776-2.162-1.358-3.492-1.746c-1.33-0.388-2.729-0.582-4.198-0.582c-2.079,0-3.783,0.304-5.112,0.915
					c-1.33,0.582-2.383,1.302-3.159,2.161c-0.748,0.859-1.261,1.774-1.538,2.744c-0.276,0.97-0.416,1.815-0.416,2.535
					c0,1.164,0.18,2.148,0.541,2.952c0.388,0.804,0.887,1.482,1.496,2.037c0.61,0.554,1.316,0.998,2.12,1.33
					c0.831,0.332,1.676,0.609,2.535,0.831l6.609,1.621c0.692,0.167,1.399,0.388,2.12,0.665c0.72,0.249,1.372,0.582,1.953,0.998
					c0.609,0.416,1.095,0.928,1.455,1.538c0.388,0.609,0.582,1.33,0.582,2.161c0,1.081-0.263,2.009-0.79,2.785
					c-0.526,0.748-1.191,1.371-1.995,1.87c-0.776,0.471-1.621,0.818-2.536,1.039c-0.915,0.222-1.76,0.333-2.536,0.333
					c-1.358,0-2.632-0.125-3.824-0.374c-1.192-0.277-2.231-0.72-3.117-1.331c-0.859-0.609-1.538-1.427-2.038-2.452
					C64.711,237.446,64.476,236.172,64.503,234.648z"/>
				<path fill-rule="evenodd" clip-rule="evenodd" fill="#001D3F" d="M92.787,232.777l5.944-15.213l5.736,15.213H92.787z
					 M97.276,214.738l-11.928,29.677h2.992l3.575-9.227h13.508l3.616,9.227h3.034l-11.638-29.677H97.276z"/>
				<path fill-rule="evenodd" clip-rule="evenodd" fill="#001D3F" d="M116.832,228.828v-11.679h10.558
					c2.161,0,3.769,0.526,4.821,1.579s1.58,2.494,1.58,4.323c0,0.915-0.181,1.732-0.541,2.453c-0.333,0.692-0.79,1.288-1.371,1.787
					c-0.583,0.499-1.261,0.887-2.038,1.164c-0.775,0.249-1.593,0.374-2.452,0.374H116.832z M114.005,214.738v29.677h2.827v-13.176
					h10.724c1.33-0.056,2.369,0.167,3.117,0.665c0.776,0.499,1.358,1.164,1.746,1.995c0.416,0.804,0.679,1.732,0.79,2.785
					c0.138,1.025,0.235,2.064,0.291,3.117c0.028,0.305,0.056,0.666,0.084,1.081c0.027,0.416,0.055,0.845,0.083,1.289
					c0.055,0.416,0.125,0.831,0.207,1.247c0.111,0.387,0.25,0.72,0.417,0.997h3.117c-0.305-0.36-0.554-0.859-0.749-1.496
					c-0.166-0.665-0.291-1.358-0.374-2.079c-0.083-0.748-0.138-1.482-0.167-2.203c-0.027-0.721-0.055-1.33-0.083-1.829
					c-0.055-0.887-0.18-1.704-0.374-2.452c-0.166-0.776-0.458-1.455-0.873-2.037c-0.388-0.583-0.901-1.054-1.538-1.414
					c-0.638-0.387-1.441-0.65-2.411-0.79v-0.083c1.912-0.388,3.353-1.275,4.323-2.66c0.97-1.386,1.455-3.021,1.455-4.905
					c0-1.33-0.25-2.48-0.749-3.45c-0.471-0.998-1.122-1.801-1.954-2.411c-0.803-0.637-1.76-1.108-2.868-1.413
					c-1.081-0.305-2.231-0.458-3.45-0.458H114.005z"/>
				<path fill-rule="evenodd" clip-rule="evenodd" fill="#001D3F" d="M143.787,228.828v-11.679h10.558
					c2.161,0,3.769,0.526,4.821,1.579s1.579,2.494,1.579,4.323c0,0.915-0.18,1.732-0.541,2.453c-0.332,0.692-0.79,1.288-1.371,1.787
					c-0.582,0.499-1.261,0.887-2.037,1.164c-0.775,0.249-1.593,0.374-2.452,0.374H143.787z M140.96,214.738v29.677h2.827v-13.176
					h10.724c1.33-0.056,2.369,0.167,3.117,0.665c0.775,0.499,1.358,1.164,1.746,1.995c0.416,0.804,0.679,1.732,0.79,2.785
					c0.138,1.025,0.235,2.064,0.291,3.117c0.028,0.305,0.056,0.666,0.083,1.081c0.027,0.416,0.055,0.845,0.083,1.289
					c0.055,0.416,0.125,0.831,0.208,1.247c0.111,0.387,0.25,0.72,0.416,0.997h3.117c-0.305-0.36-0.554-0.859-0.748-1.496
					c-0.167-0.665-0.292-1.358-0.375-2.079c-0.083-0.748-0.138-1.482-0.166-2.203c-0.027-0.721-0.055-1.33-0.083-1.829
					c-0.055-0.887-0.18-1.704-0.374-2.452c-0.167-0.776-0.458-1.455-0.873-2.037c-0.388-0.583-0.9-1.054-1.538-1.414
					c-0.637-0.387-1.441-0.65-2.411-0.79v-0.083c1.912-0.388,3.354-1.275,4.323-2.66c0.97-1.386,1.455-3.021,1.455-4.905
					c0-1.33-0.25-2.48-0.748-3.45c-0.472-0.998-1.122-1.801-1.954-2.411c-0.804-0.637-1.76-1.108-2.868-1.413
					c-1.081-0.305-2.23-0.458-3.45-0.458H140.96z"/>
				<path fill-rule="evenodd" clip-rule="evenodd" fill="#001D3F" d="M169.161,229.577c0-1.635,0.208-3.229,0.624-4.78
					c0.443-1.552,1.108-2.938,1.995-4.157c0.915-1.247,2.079-2.245,3.492-2.993s3.103-1.122,5.07-1.122s3.645,0.374,5.03,1.122
					c1.413,0.748,2.563,1.746,3.45,2.993c0.914,1.219,1.579,2.605,1.995,4.157c0.443,1.551,0.665,3.145,0.665,4.78
					c0,1.607-0.222,3.2-0.665,4.78c-0.416,1.551-1.081,2.951-1.995,4.198c-0.887,1.219-2.037,2.203-3.45,2.951
					c-1.385,0.748-3.062,1.122-5.03,1.122s-3.657-0.374-5.07-1.122c-1.413-0.749-2.577-1.732-3.492-2.951
					c-0.887-1.247-1.552-2.646-1.995-4.198C169.369,232.777,169.161,231.184,169.161,229.577z M166.335,229.577
					c0,2.05,0.291,4.004,0.873,5.861c0.582,1.856,1.455,3.491,2.619,4.904c1.164,1.413,2.619,2.55,4.364,3.409
					c1.773,0.831,3.824,1.246,6.151,1.246s4.365-0.416,6.11-1.246c1.746-0.859,3.2-1.996,4.364-3.409
					c1.164-1.413,2.037-3.048,2.619-4.904c0.582-1.857,0.873-3.811,0.873-5.861c0-2.051-0.291-4.004-0.873-5.86
					c-0.582-1.857-1.455-3.492-2.619-4.905c-1.164-1.441-2.618-2.577-4.364-3.408c-1.746-0.859-3.783-1.288-6.11-1.288
					s-4.378,0.429-6.151,1.288c-1.745,0.832-3.2,1.967-4.364,3.408c-1.164,1.414-2.037,3.048-2.619,4.905
					C166.625,225.573,166.335,227.526,166.335,229.577z"/>
				<polygon fill-rule="evenodd" clip-rule="evenodd" fill="#001D3F" points="197.945,214.738 197.945,244.415 217.397,244.415 
					217.397,242.004 200.771,242.004 200.771,214.738 				"/>
				<polygon fill-rule="evenodd" clip-rule="evenodd" fill="#001D3F" points="219.496,214.738 219.496,244.415 238.948,244.415 
					238.948,242.004 222.322,242.004 222.322,214.738 				"/>
				<path fill-rule="evenodd" clip-rule="evenodd" fill="#001D3F" d="M242.293,229.577c0-1.635,0.208-3.229,0.624-4.78
					c0.443-1.552,1.108-2.938,1.995-4.157c0.915-1.247,2.079-2.245,3.492-2.993s3.103-1.122,5.07-1.122
					c1.968,0,3.645,0.374,5.03,1.122c1.413,0.748,2.563,1.746,3.45,2.993c0.914,1.219,1.579,2.605,1.995,4.157
					c0.443,1.551,0.665,3.145,0.665,4.78c0,1.607-0.222,3.2-0.665,4.78c-0.416,1.551-1.081,2.951-1.995,4.198
					c-0.887,1.219-2.037,2.203-3.45,2.951c-1.385,0.748-3.062,1.122-5.03,1.122c-1.967,0-3.657-0.374-5.07-1.122
					c-1.413-0.749-2.577-1.732-3.492-2.951c-0.887-1.247-1.552-2.646-1.995-4.198C242.501,232.777,242.293,231.184,242.293,229.577z
					 M239.467,229.577c0,2.05,0.291,4.004,0.873,5.861c0.582,1.856,1.455,3.491,2.619,4.904c1.164,1.413,2.619,2.55,4.364,3.409
					c1.773,0.831,3.824,1.246,6.151,1.246s4.365-0.416,6.11-1.246c1.746-0.859,3.2-1.996,4.364-3.409
					c1.164-1.413,2.037-3.048,2.619-4.904c0.582-1.857,0.873-3.811,0.873-5.861c0-2.051-0.291-4.004-0.873-5.86
					c-0.582-1.857-1.455-3.492-2.619-4.905c-1.164-1.441-2.618-2.577-4.364-3.408c-1.746-0.859-3.783-1.288-6.11-1.288
					s-4.378,0.429-6.151,1.288c-1.745,0.832-3.2,1.967-4.364,3.408c-1.164,1.414-2.037,3.048-2.619,4.905
					C239.757,225.573,239.467,227.526,239.467,229.577z"/>
				<path fill-rule="evenodd" clip-rule="evenodd" fill="#001D3F" d="M272.406,234.648h-2.826c-0.083,1.828,0.152,3.394,0.707,4.696
					c0.582,1.303,1.399,2.37,2.452,3.2c1.053,0.832,2.328,1.455,3.824,1.871c1.497,0.387,3.118,0.582,4.863,0.582
					s3.242-0.167,4.489-0.499c1.248-0.305,2.286-0.707,3.118-1.205c0.859-0.526,1.524-1.108,1.995-1.746
					c0.499-0.637,0.874-1.261,1.123-1.871c0.277-0.637,0.443-1.233,0.499-1.788c0.083-0.553,0.125-0.998,0.125-1.33
					c0-1.219-0.208-2.259-0.624-3.118c-0.388-0.858-0.942-1.579-1.663-2.161c-0.693-0.609-1.51-1.109-2.452-1.496
					c-0.915-0.416-1.898-0.763-2.951-1.04l-7.233-1.788c-0.609-0.138-1.191-0.318-1.745-0.54c-0.526-0.222-0.998-0.513-1.413-0.873
					c-0.416-0.36-0.749-0.79-0.998-1.288c-0.222-0.527-0.333-1.137-0.333-1.83c0-1.108,0.208-2.036,0.624-2.785
					c0.416-0.749,0.956-1.344,1.621-1.787c0.692-0.472,1.482-0.804,2.369-0.998c0.915-0.221,1.856-0.332,2.827-0.332
					c1.053,0,2.05,0.152,2.992,0.457c0.97,0.277,1.815,0.707,2.536,1.288c0.748,0.555,1.344,1.261,1.787,2.121
					c0.471,0.831,0.734,1.814,0.79,2.951h2.826c0-1.524-0.304-2.854-0.914-3.99c-0.583-1.164-1.372-2.134-2.37-2.909
					c-0.998-0.776-2.162-1.358-3.492-1.746c-1.33-0.388-2.729-0.582-4.198-0.582c-2.079,0-3.783,0.304-5.113,0.915
					c-1.33,0.582-2.382,1.302-3.159,2.161c-0.748,0.859-1.261,1.774-1.538,2.744s-0.416,1.815-0.416,2.535
					c0,1.164,0.18,2.148,0.541,2.952c0.388,0.804,0.887,1.482,1.496,2.037c0.61,0.554,1.316,0.998,2.12,1.33
					c0.831,0.332,1.676,0.609,2.535,0.831l6.609,1.621c0.692,0.167,1.399,0.388,2.12,0.665c0.72,0.249,1.372,0.582,1.953,0.998
					c0.609,0.416,1.095,0.928,1.455,1.538c0.388,0.609,0.582,1.33,0.582,2.161c0,1.081-0.263,2.009-0.79,2.785
					c-0.526,0.748-1.191,1.371-1.995,1.87c-0.776,0.471-1.621,0.818-2.536,1.039c-0.915,0.222-1.76,0.333-2.536,0.333
					c-1.358,0-2.632-0.125-3.824-0.374c-1.192-0.277-2.231-0.72-3.117-1.331c-0.859-0.609-1.538-1.427-2.038-2.452
					C272.614,237.446,272.379,236.172,272.406,234.648z"/>
			</g>
		</g>
		<g>
			<g>
				<polygon fill="#37B5C6" points="11.811,43.598 82.214,43.598 82.214,52.892 11.811,52.892 11.811,43.598 				"/>
				<path fill="#37B5C6" d="M47.012,48.245"/>
			</g>
			<g>
				<polygon fill="#006F94" points="82.156,43.598 152.559,43.598 152.559,52.892 82.156,52.892 82.156,43.598 				"/>
				<path fill="#006F94" d="M117.357,48.245"/>
			</g>
			<g>
				<polygon fill="#00436D" points="152.572,43.598 222.975,43.598 222.975,52.892 152.572,52.892 152.572,43.598 				"/>
				<path fill="#00436D" d="M187.773,48.245"/>
			</g>
			<g>
				<polygon fill="#001D3F" points="222.941,43.598 293.344,43.598 293.344,52.892 222.941,52.892 222.941,43.598 				"/>
				<path fill="#001D3F" d="M258.143,48.245"/>
			</g>
		</g>
	</g>
</g>
</svg>
